<?xml version="1.0" encoding="UTF-8"?>
<svg id="Layer_1" xmlns="http://www.w3.org/2000/svg" version="1.1" viewBox="0 0 787 62">
  <!-- Generator: Adobe Illustrator 29.6.1, SVG Export Plug-In . SVG Version: 2.1.1 Build 9)  -->
  <path d="M0,61V1.2h25.2c12.3,0,19.1,8.4,19.1,18.4s-6.9,18.4-19.1,18.4H9v23.1H0ZM24.1,9.1h-15.1v21h15.1c6.5,0,11-4.2,11-10.5s-4.6-10.5-11-10.5Z"/>
  <path d="M53.4,61V17.7h8.1v6.6c3.3-4.3,8.4-7.6,14.2-7.6v8.2c-.8-.2-1.7-.3-2.8-.3-4,0-9.5,3.1-11.4,6.3v30.1h-8.1Z"/>
  <path d="M81.1,39.3c0-12.5,8.4-22.7,21.9-22.7s21.9,10.2,21.9,22.7-8.3,22.8-21.9,22.8-21.9-10.2-21.9-22.8ZM116.4,39.3c0-8.2-4.8-15.5-13.5-15.5s-13.5,7.4-13.5,15.5,4.8,15.6,13.5,15.6,13.5-7.4,13.5-15.6Z"/>
  <path d="M187.8,61v-28.9c0-5-2.2-8.3-7.5-8.3s-8.7,3.1-10.8,6.2v31h-8.1v-28.9c0-5-2.2-8.3-7.6-8.3s-8.4,3.1-10.6,6.3v31h-8.1V17.7h8.1v6.1c1.8-2.7,7.5-7.2,14-7.2s10.4,3.4,11.8,8.1c2.5-4,8.3-8.1,14.6-8.1s12.3,4.4,12.3,13.1v31.3h-8.1Z"/>
  <path d="M227.7,16.6c13,0,21.1,10.1,21.1,23.4v2h-34.3c.6,7.4,6,13.5,14.7,13.5s9.6-1.8,12.8-5.1l3.8,5.3c-4.3,4.2-10.4,6.5-17.4,6.5-12.9,0-22.4-9.2-22.4-22.8s9.1-22.7,21.7-22.7ZM214.4,36.2h26.5c-.2-5.7-4-12.9-13.2-12.9s-12.8,7-13.3,12.9Z"/>
  <path d="M260.5,51.4v-26.6h-7.2v-7.1h7.2V5.8h8.1v11.8h8.8v7.1h-8.8v24.9c0,3.1,1.4,5.3,4.2,5.3s3.6-.8,4.4-1.7l2.1,6.1c-1.7,1.6-4.2,2.8-8.4,2.8-6.8,0-10.3-3.9-10.3-10.7Z"/>
  <path d="M315.6,61v-27.9c0-7.2-3.7-9.3-9.2-9.3s-9.6,3.1-11.9,6.3v31h-8.1V1.2h8.1v22.6c2.9-3.5,8.7-7.2,15.3-7.2s13.9,4.7,13.9,13.8v30.6h-8.1Z"/>
  <path d="M355.6,16.6c13,0,21.1,10.1,21.1,23.4v2h-34.3c.6,7.4,6,13.5,14.7,13.5s9.6-1.8,12.8-5.1l3.8,5.3c-4.3,4.2-10.4,6.5-17.4,6.5-12.9,0-22.4-9.2-22.4-22.8s9.1-22.7,21.7-22.7ZM342.3,36.2h26.5c-.2-5.7-4-12.9-13.2-12.9s-12.8,7-13.3,12.9Z"/>
  <path d="M416.1,61v-5.9c-3.3,3.6-8.8,7-15.4,7s-13.8-4.7-13.8-13.8v-30.6h8.1v27.9c0,7.2,3.6,9.3,9.2,9.3s9.6-2.9,12-6.1v-31.1h8.1v43.3h-8.1Z"/>
  <path d="M437.1,49.4c3,3.2,8.7,6.2,14.5,6.2s9.3-2.5,9.3-6.2-4.9-5.7-10.5-7c-7.4-1.7-16-3.7-16-13s5.9-12.8,16.5-12.8,12.8,2.7,16.5,6.2l-3.6,5.7c-2.5-3.1-7.4-5.3-12.8-5.3s-8.9,2.2-8.9,5.7,4.7,5,10,6.3c7.5,1.7,16.5,3.8,16.5,13.7s-6.1,13.3-17.5,13.3-13.6-2.2-18-6.7l3.9-5.9Z"/>
  <path d="M503.7,45.7c4,4.5,10.5,8.4,18.8,8.4s13.1-4.9,13.1-9.2c0-6.3-6.8-8.1-14.4-10-9.6-2.5-20.7-5.3-20.7-17.5S509.2.3,521.7.3s16.5,3,21.8,8.3l-5.2,6.6c-4.6-4.8-10.9-7-17.3-7s-11.2,3.4-11.2,8.4,6.5,7.1,13.9,9c9.8,2.6,21.2,5.7,21.2,18.4s-6.5,18-22.6,18-18.5-3.9-23.6-9.5l5.1-6.9Z"/>
  <path d="M555.2,51.4v-26.6h-7.2v-7.1h7.2V5.8h8.1v11.8h8.8v7.1h-8.8v24.9c0,3.1,1.4,5.3,4.2,5.3s3.6-.8,4.4-1.7l2.1,6.1c-1.7,1.6-4.2,2.8-8.4,2.8-6.8,0-10.3-3.9-10.3-10.7Z"/>
  <path d="M610.3,61v-5.9c-3.3,3.6-8.8,7-15.4,7s-13.8-4.7-13.8-13.8v-30.6h8.1v27.9c0,7.2,3.6,9.3,9.2,9.3s9.6-2.9,12-6.1v-31.1h8.1v43.3h-8.1Z"/>
  <path d="M662.1,61v-6.2c-3.2,4.3-8.4,7.3-14.2,7.3-11.3,0-19.4-8.5-19.4-22.7s8.1-22.8,19.4-22.8,10.7,2.7,14.2,7.4V1.2h8.1v59.8h-8.1ZM662.1,30.1c-2.2-3.5-7.1-6.4-12-6.4-8.1,0-13.1,6.5-13.1,15.6s5,15.5,13.1,15.5,9.8-2.8,12-6.3v-18.5Z"/>
  <path d="M681.8,5.3c0-2.9,2.4-5.2,5.2-5.2s5.2,2.3,5.2,5.2-2.3,5.1-5.2,5.1-5.2-2.2-5.2-5.1ZM683.1,61V17.7h8.1v43.3h-8.1Z"/>
  <path d="M701.3,39.3c0-12.5,8.4-22.7,21.9-22.7s21.9,10.2,21.9,22.7-8.3,22.8-21.9,22.8-21.9-10.2-21.9-22.8ZM736.6,39.3c0-8.2-4.8-15.5-13.5-15.5s-13.5,7.4-13.5,15.5,4.8,15.6,13.5,15.6,13.5-7.4,13.5-15.6Z"/>
  <path d="M755.4,49.4c3,3.2,8.7,6.2,14.5,6.2s9.3-2.5,9.3-6.2-4.9-5.7-10.5-7c-7.4-1.7-16-3.7-16-13s5.9-12.8,16.5-12.8,12.8,2.7,16.5,6.2l-3.6,5.7c-2.5-3.1-7.4-5.3-12.8-5.3s-8.9,2.2-8.9,5.7,4.7,5,10,6.3c7.5,1.7,16.5,3.8,16.5,13.7s-6.1,13.3-17.5,13.3-13.6-2.2-18-6.7l3.9-5.9Z"/>
</svg>