<?xml version="1.0" encoding="UTF-8"?>
<svg id="Layer_1" data-name="Layer 1" xmlns="http://www.w3.org/2000/svg" viewBox="0 0 32 32">
  <defs>
    <style>
      .cls-1 {
        fill: #fba822;
      }

      .cls-2 {
        fill: #d65128;
      }
    </style>
  </defs>
  <g>
    <path class="cls-1" d="M14.78,8.71c.05.3.13.6.23.89.14.4.32.8.54,1.18.22.38.48.74.76,1.06.2.23.42.45.65.64.1.09.2.17.3.24.21.16.43.3.65.43.25.14.49.32.7.53.07.07.14.15.21.23.11.14.22.29.31.44.09.16.17.32.23.49.04.1.07.2.1.3.07.26.11.53.11.8,0,.03,0,.05,0,.08,0,.27-.04.54-.11.8-.03.1-.06.2-.1.3-.12.34-.31.66-.54.94-.06.08-.14.16-.21.23-.2.2-.42.37-.67.52-.25.14-.52.25-.79.33.04.04.08.08.11.12.35.39.66.82.93,1.29.27.47.49.95.65,1.45.24-.1.49-.22.72-.36.24-.14.46-.29.67-.45.1-.08.21-.16.3-.24.24-.2.45-.42.65-.64.58-.66,1.02-1.42,1.29-2.24.1-.29.18-.59.23-.89.02-.13.05-.26.06-.38.03-.25.05-.51.05-.77,0-.03,0-.05,0-.08,0-.25-.02-.51-.05-.77-.02-.13-.04-.26-.06-.38-.05-.3-.13-.6-.23-.89-.14-.4-.31-.8-.53-1.18-.22-.38-.48-.74-.76-1.06-.2-.23-.42-.45-.65-.64-.1-.09-.2-.17-.3-.24-.2-.15-.42-.3-.63-.42-.03-.02-.06-.03-.09-.05-.23-.14-.44-.3-.63-.49-.07-.07-.14-.15-.21-.23-.11-.14-.22-.29-.31-.44-.09-.16-.17-.32-.23-.49-.04-.1-.07-.2-.1-.3-.07-.26-.11-.53-.11-.8,0-.03,0-.05,0-.08,0-.25-.02-.51-.05-.77-.02-.13-.04-.26-.06-.38-.05-.3-.13-.6-.23-.89-.14-.4-.31-.8-.53-1.18-.22-.38-.48-.74-.76-1.06-.58.66-1.02,1.42-1.29,2.24-.1.29-.18.59-.23.89-.02.13-.05.26-.06.38-.03.25-.05.51-.05.77,0,.03,0,.05,0,.08,0,.25.02.51.05.77.02.13.04.26.06.38Z"/>
    <path class="cls-1" d="M9.82,16.81c.02.13.04.26.06.38.05.3.13.6.23.89.14.4.31.8.53,1.18.22.38.48.74.76,1.06.2.23.42.45.65.64.1.09.2.17.3.25.21.16.43.3.65.43.25.14.49.32.7.53.07.07.14.15.21.23.11.14.22.29.31.44.09.16.17.32.23.49.04.1.07.2.1.3.07.26.11.53.11.8,0,.03,0,.05,0,.08,0,.25.02.51.05.77.02.13.04.26.06.38.05.3.13.6.23.89.14.4.31.8.53,1.18.22.38.48.74.76,1.06.58-.66,1.02-1.42,1.29-2.24.1-.29.18-.59.23-.89.02-.13.05-.26.06-.38.03-.25.05-.51.05-.77,0-.03,0-.05,0-.08,0-.25-.02-.51-.05-.77-.02-.13-.04-.26-.06-.38-.05-.3-.13-.6-.23-.89-.14-.4-.31-.8-.53-1.18s-.48-.74-.76-1.06c-.2-.23-.42-.45-.65-.64-.1-.09-.2-.17-.3-.25-.21-.16-.43-.3-.65-.43-.25-.14-.49-.32-.7-.53-.07-.07-.14-.15-.21-.23-.12-.14-.22-.29-.31-.44-.09-.16-.17-.32-.23-.49-.04-.1-.07-.2-.1-.3-.07-.26-.11-.53-.11-.8,0-.03,0-.05,0-.08,0-.27.04-.54.11-.8.03-.1.06-.2.1-.3.12-.34.31-.66.54-.94.06-.08.14-.16.21-.23.2-.2.42-.37.67-.52.25-.14.52-.25.78-.33-.04-.04-.07-.08-.11-.12-.35-.39-.66-.82-.93-1.29-.27-.47-.49-.95-.65-1.45-.24.1-.49.22-.72.36-.24.14-.46.29-.67.45-.1.08-.21.16-.3.24-.24.2-.45.42-.65.64-.58.66-1.02,1.42-1.29,2.24-.1.29-.18.59-.23.89-.02.13-.05.26-.06.39-.03.25-.05.51-.05.77,0,.03,0,.05,0,.08,0,.25.02.51.05.77Z"/>
  </g>
  <circle class="cls-2" cx="16.3" cy="16" r="1.96"/>
</svg>